<svg width="240" height="256" viewBox="0 0 240 256" fill="none" xmlns="http://www.w3.org/2000/svg">
<path d="M118 236C183.17 236 236 183.17 236 118C236 52.8304 183.17 0 118 0C52.8304 0 0 52.8304 0 118C0 183.17 52.8304 236 118 236Z" fill="#EEF3FF"/>
<path d="M153 30H28C23.0294 30 19 34.0294 19 39V195C19 199.971 23.0294 204 28 204H153C157.971 204 162 199.971 162 195V39C162 34.0294 157.971 30 153 30Z" fill="#925300"/>
<path d="M153 39H28V195H153V39Z" fill="white"/>
<path d="M91 40C97.0751 40 102 35.0751 102 29C102 22.9249 97.0751 18 91 18C84.9249 18 80 22.9249 80 29C80 35.0751 84.9249 40 91 40Z" fill="#C3CAC9"/>
<path d="M115 26H67C65.3431 26 64 27.3431 64 29V41C64 42.6569 65.3431 44 67 44H115C116.657 44 118 42.6569 118 41V29C118 27.3431 116.657 26 115 26Z" fill="#C3CAC9"/>
<path d="M63.999 58.999H43.999C41.7899 58.999 39.999 60.7899 39.999 62.999V82.999C39.999 85.2081 41.7899 86.999 43.999 86.999H63.999C66.2082 86.999 67.999 85.2081 67.999 82.999V62.999C67.999 60.7899 66.2082 58.999 63.999 58.999Z" fill="#FBC103"/>
<path d="M108.999 65.999H78.999C77.3422 65.999 75.999 67.3421 75.999 68.999C75.999 70.6558 77.3422 71.999 78.999 71.999H108.999C110.656 71.999 111.999 70.6558 111.999 68.999C111.999 67.3421 110.656 65.999 108.999 65.999Z" fill="#D1D1D1"/>
<path d="M137.999 75.999H78.999C77.3422 75.999 75.999 77.3421 75.999 78.999C75.999 80.6558 77.3422 81.999 78.999 81.999H137.999C139.656 81.999 140.999 80.6558 140.999 78.999C140.999 77.3421 139.656 75.999 137.999 75.999Z" fill="#D1D1D1"/>
<path d="M44.928 72.391L49.905 78.751L62.348 67.137" stroke="#707070" stroke-width="3" stroke-linecap="round" stroke-linejoin="round"/>
<path d="M63.999 97.5H43.999C42.066 97.5 40.499 99.067 40.499 101V118C40.499 119.933 42.066 121.5 43.999 121.5H63.999C65.932 121.5 67.499 119.933 67.499 118V101C67.499 99.067 65.932 97.5 63.999 97.5Z" stroke="#707070"/>
<path d="M109.499 103H78.499C77.1183 103 75.999 104.119 75.999 105.5C75.999 106.881 77.1183 108 78.499 108H109.499C110.88 108 111.999 106.881 111.999 105.5C111.999 104.119 110.88 103 109.499 103Z" fill="#D1D1D1"/>
<path d="M137.999 112H78.999C77.3422 112 75.999 113.343 75.999 115C75.999 116.657 77.3422 118 78.999 118H137.999C139.656 118 140.999 116.657 140.999 115C140.999 113.343 139.656 112 137.999 112Z" fill="#D1D1D1"/>
<path d="M73.999 133H42.999C41.3422 133 39.999 134.343 39.999 136C39.999 137.657 41.3422 139 42.999 139H73.999C75.6559 139 76.999 137.657 76.999 136C76.999 134.343 75.6559 133 73.999 133Z" fill="#D1D1D1"/>
<path d="M137.999 143H42.999C41.3422 143 39.999 144.343 39.999 146C39.999 147.657 41.3422 149 42.999 149H137.999C139.656 149 140.999 147.657 140.999 146C140.999 144.343 139.656 143 137.999 143Z" fill="#D1D1D1"/>
<path d="M137.499 154H43.499C41.566 154 39.999 155.567 39.999 157.5C39.999 159.433 41.566 161 43.499 161H137.499C139.432 161 140.999 159.433 140.999 157.5C140.999 155.567 139.432 154 137.499 154Z" fill="#D1D1D1"/>
<path d="M138.499 166H42.499C41.1183 166 39.999 167.119 39.999 168.5C39.999 169.881 41.1183 171 42.499 171H138.499C139.88 171 140.999 169.881 140.999 168.5C140.999 167.119 139.88 166 138.499 166Z" fill="#D1D1D1"/>
<path d="M137.325 54.0992L236.4 75.1744C236.4 75.1744 237.752 80.2615 236.88 84.3583C236.192 87.0576 234.827 89.537 232.914 91.5627L133.839 70.4875L137.325 54.0992Z" fill="#FFC400"/>
<path d="M135.943 60.6018L237.179 82.058C237.142 82.7564 237.058 83.4514 236.927 84.1383C236.73 85.0657 236.353 86.2319 236.353 86.2319L135.154 64.3113L135.943 60.6018Z" fill="#FFC400"/>
<path d="M137.432 54.0645L236.356 75.1208C236.356 75.1208 236.572 76.3753 236.687 77.7945C236.803 79.2137 236.816 80.7962 236.816 80.7962L136.4 58.9195L137.432 54.0645Z" fill="#FFE66A"/>
<path d="M134.769 66.1254L235.129 88.0435C235.129 88.0435 234.714 88.7732 234.156 89.7025C233.597 90.6317 232.917 91.5606 232.917 91.5606L133.842 70.4854L134.769 66.1254Z" fill="#DCA900"/>
<path d="M137.449 54.0953L133.961 70.4933L120.661 57.9342L137.449 54.0953Z" fill="#FEF0D6"/>
<path d="M126.201 56.7293L124.95 62.0392L120.656 57.9604L126.201 56.7293Z" fill="#6F6F6F"/>
<path d="M168.862 244.841H173.505L172.98 252.653H169.496L168.862 244.841Z" fill="#FFD2AB"/>
<path d="M208.54 238.393L212.651 236.301L215.616 242.374L212.375 244.003L208.54 238.393Z" fill="#FFD2AB"/>
<path d="M224.687 91.6008C225.171 89.9011 224.494 89.5458 224.879 88.3743C225.263 87.2027 226.005 85.8059 226.59 86.4008C227.176 86.9957 226.25 88.0443 226.839 89.7671C227.001 90.2365 228.677 90.5373 228.677 90.5373L230.974 91.0881C230.433 91.8042 229.75 92.4008 228.968 92.8406C227.704 93.53 228.128 93.6978 227.187 94.8794C225.102 97.5005 223.566 95.1445 223.968 93.7257C224.371 92.3069 224.203 93.2996 224.687 91.6008Z" fill="#FFD2AB"/>
<path d="M140.24 71.9023C140.445 71.1636 140.444 70.3832 140.239 69.6446C139.88 68.612 139.235 67.3416 138.794 67.7635C138.354 68.1854 139.462 70.4245 138.324 71.1009C137.873 71.3683 137.271 71.1735 136.44 71.001C135.449 70.7968 134.232 70.5082 134.232 70.5082C134.393 71.2838 134.711 72.0183 135.166 72.6663C136.011 74.0107 136.645 73.8232 137.628 75.85C138.612 77.8768 141.339 76.5636 140.707 75.2367C140.309 74.1728 140.15 73.0346 140.24 71.9023V71.9023Z" fill="#FFD2AB"/>
<path d="M165.906 155.891L185.483 159.134L176.834 199.497L173.9 245.661C173.129 246.136 172.25 246.406 171.346 246.445C170.352 246.38 169.382 246.113 168.494 245.661C168.494 245.661 166.535 218.105 165.906 201.413C165.277 184.721 165.906 155.891 165.906 155.891Z" fill="#0F2438"/>
<path d="M176.607 161.884L193.859 156.644C193.859 156.644 196.659 190.128 198.096 196.074C199.533 202.02 214.313 237.697 214.313 237.697C213.778 238.45 213.161 239.142 212.474 239.759C211.434 240.659 209.087 240.58 209.087 240.58C209.087 240.58 189.25 205.206 188.007 203.461C186.764 201.716 181.117 186.912 179.176 178.595C177.944 173.089 177.085 167.506 176.607 161.884V161.884Z" fill="#173450"/>
<path d="M166.223 118.456C169.293 120.556 187.938 122.043 192.692 121.291C197.446 120.539 203.352 116.637 209.45 111.741C215.548 106.845 224.027 92.286 224.027 92.286C224.429 92.9263 225.008 93.4367 225.693 93.756C226.382 94.062 227.122 94.2373 227.875 94.273C227.875 94.273 220.245 112.045 212.875 119.495C205.505 126.945 196.836 130.686 195.937 133.595C195.038 136.504 196.029 151.42 193.593 157.511C191.157 163.602 167.899 165.641 166.223 159.856C164.547 154.071 163.323 138.416 161.398 133.598C159.473 128.78 153.898 121.485 149.506 115.398C145.114 109.311 136.743 75.73 136.743 75.73C137.509 75.9518 138.323 75.9518 139.089 75.73C139.763 75.4158 140.349 74.9396 140.795 74.344C140.795 74.344 148.82 97.367 154.284 105.628C159.748 113.889 163.153 116.363 166.223 118.456Z" fill="#00398E"/>
<path d="M163.843 132.754C165.29 137.486 166.308 142.339 166.885 147.254C167.903 155.702 168.043 159.386 169.305 160.59C170.567 161.794 171.799 163.474 177.436 163.101C183.073 162.728 184.006 162.501 185.836 162.093C187.25 161.721 188.627 161.218 189.949 160.593C189.949 160.593 191.827 159.906 193.049 156.105C193.649 154.236 193.68 152.13 194.058 147.905C194.436 143.68 194.514 134.263 195.291 132.322C195.741 131.198 200.846 128.21 205.642 124.522C207.526 123.06 209.562 121.551 211.215 120.002C212.343 118.945 213.543 117.853 214.25 117.132C218.105 113.195 227.875 94.271 227.875 94.271C227.875 94.271 220.245 112.043 212.875 119.493C205.505 126.943 196.836 130.684 195.937 133.593C195.038 136.502 196.029 151.418 193.593 157.509C191.157 163.6 167.9 165.637 166.224 159.851C164.548 154.065 163.324 138.411 161.399 133.593C159.474 128.775 153.899 121.48 149.507 115.393C145.115 109.306 136.743 75.73 136.743 75.73C138.405 78.9803 139.806 82.3576 140.933 85.83C144.025 95.43 147.78 109.33 151.261 114.594C156.724 122.851 161.76 127.487 163.843 132.754Z" fill="#042D6B"/>
<path d="M169.234 250.179C169.465 250.392 169.738 250.553 170.036 250.652C170.333 250.752 170.649 250.787 170.961 250.755C171.878 250.693 172.768 250.419 173.561 249.955C173.561 249.955 175.245 254.136 173.561 254.755C171.877 255.374 161.346 257.044 160.74 254.752C160.134 252.46 169.234 250.179 169.234 250.179Z" fill="#FBC103"/>
<path d="M211.435 242.836C211.733 242.936 212.049 242.973 212.362 242.942C212.674 242.911 212.977 242.815 213.25 242.658C214.062 242.228 214.764 241.616 215.3 240.87C215.3 240.87 218.539 244.004 217.252 245.255C215.965 246.505 207.019 252.312 205.536 250.471C204.053 248.63 211.435 242.836 211.435 242.836Z" fill="#FBC103"/>
<path d="M175.001 114.993L182.255 113.064C182.255 113.064 181.849 117.1 181.917 118.464C182.006 119.429 182.247 120.374 182.631 121.264C182.631 121.264 182.495 121.791 180.864 122.351C179.668 122.716 178.39 122.716 177.194 122.351C176.766 122.198 176.374 121.959 176.041 121.65C175.708 121.34 175.441 120.967 175.257 120.551C175.257 120.551 175.293 119.069 175.001 114.993Z" fill="#FFD2AB"/>
<path d="M174.887 114.551L182.255 113.064C182.255 113.064 182.197 111.387 182.475 113.683C182.575 114.5 181.385 115.707 179.601 116.883C178.586 117.59 177.501 118.19 176.363 118.676C175.287 118.998 175.205 118.375 175.205 118.375C175.205 118.375 175.115 116.456 175.067 115.962C175.061 115.486 175 115.013 174.887 114.551V114.551Z" fill="#F1B785"/>
<path d="M177.539 96.013C180.118 96.0228 182.588 97.0568 184.405 98.8875C186.222 100.718 187.238 103.196 187.228 105.775C187.228 111.167 180.912 116.975 175.646 116.651C170.38 116.327 167.488 111.167 167.488 105.775C167.561 103.159 168.652 100.674 170.529 98.8509C172.407 97.0274 174.922 96.0091 177.539 96.013V96.013Z" fill="#FFD2AB"/>
<path d="M169.566 95.85C169.566 95.85 165.718 91.497 162.942 96.923C160.166 102.349 165.276 103.547 167.042 103.737C169.561 103.849 172.084 103.637 174.549 103.106C176.515 102.63 179.911 103.232 179.659 104.368C179.407 105.504 179.344 107.586 180.227 108.532C181.11 109.478 182.372 107.523 182.372 107.523C182.463 107.274 182.641 107.067 182.873 106.939C183.105 106.811 183.375 106.772 183.634 106.829C184.517 107.081 184.328 109.289 183.634 109.857C182.688 110.717 182.065 111.875 181.868 113.138C181.773 114.061 181.773 114.991 181.868 115.914C182.057 116.797 183.887 116.293 185.716 115.157C187.545 114.021 188.689 110.012 188.689 110.012C188.689 110.012 190.977 107.873 191.016 103.112C191.055 98.351 185.716 96.361 185.716 96.361C185.716 96.361 184.474 93.512 179.155 92.576C173.836 91.64 169.566 95.85 169.566 95.85Z" fill="#0F2437"/>
<path d="M174.105 107.243C173.84 106.891 172.027 109.253 172.789 110.398C173.551 111.543 174.314 110.398 174.314 110.398C174.366 109.342 174.296 108.283 174.105 107.243V107.243Z" fill="#F1B785"/>
</svg>
